<svg width="180" height="188" viewBox="0 0 180 188" fill="none" xmlns="http://www.w3.org/2000/svg">
<path fill-rule="evenodd" clip-rule="evenodd" d="M167.929 142.183C143.081 185.222 88.0465 199.968 45.0079 175.119C1.96874 150.27 -12.778 95.2368 12.0705 52.1977C36.9195 9.15849 91.9537 -5.58764 134.993 19.2608C178.031 44.1092 192.778 99.1434 167.929 142.183Z" fill="#D6D6D6"/>
<mask id="mask0" mask-type="alpha" maskUnits="userSpaceOnUse" x="0" y="7" width="180" height="181">
<path fill-rule="evenodd" clip-rule="evenodd" d="M167.929 142.183C143.081 185.222 88.0465 199.968 45.0079 175.119C1.96874 150.27 -12.778 95.2368 12.0705 52.1977C36.9195 9.15849 91.9537 -5.58764 134.993 19.2608C178.031 44.1092 192.778 99.1434 167.929 142.183Z" fill="white"/>
</mask>
<g mask="url(#mask0)">
<path fill-rule="evenodd" clip-rule="evenodd" d="M47.0641 128.861L135.091 124.248L129.482 17.2288L41.4551 21.842L47.0641 128.861Z" fill="#CC0000"/>
<path fill-rule="evenodd" clip-rule="evenodd" d="M87.4726 81.1958C92.0606 81.6469 96.1447 78.2947 96.5964 73.7073C97.0476 69.1204 93.6953 65.0357 89.1073 64.5846C84.5217 64.1335 80.4357 67.4863 79.984 72.0726C79.5329 76.6606 82.8869 80.7447 87.4726 81.1958ZM86.7008 89.0393C95.5361 89.9085 103.402 83.4512 104.271 74.6177C105.14 65.7848 98.6832 57.9183 89.8485 57.049C81.0156 56.1798 73.1491 62.6371 72.2798 71.47C71.4112 80.3035 77.8685 88.17 86.7008 89.0393ZM64.1903 70.674C65.4992 57.3743 77.3431 47.6529 90.6428 48.9613C103.945 50.2702 113.665 62.1129 112.356 75.4132C111.047 88.7136 99.2058 98.4374 85.9042 97.1284C72.6044 95.82 62.8819 83.975 64.1903 70.674Z" fill="white"/>
<path fill-rule="evenodd" clip-rule="evenodd" d="M52.6783 3.35673L116.388 0.017686C123.102 -0.333855 128.832 4.82408 129.183 11.5394L129.482 17.2288L41.4548 21.842L41.1566 16.1526C40.8051 9.43791 45.963 3.70827 52.6783 3.35673ZM60.6356 155.19C53.9209 155.542 48.1913 150.383 47.8397 143.668L47.0635 128.861L135.09 124.247L135.867 139.055C136.218 145.77 131.06 151.499 124.345 151.851L60.6356 155.19Z" fill="black"/>
<path fill-rule="evenodd" clip-rule="evenodd" d="M100.314 138.943C100.562 143.672 96.9281 147.707 92.199 147.955C87.47 148.203 83.4345 144.57 83.1868 139.841C82.939 135.111 86.5726 131.077 91.3016 130.829C96.0306 130.581 100.066 134.214 100.314 138.943Z" fill="#4B4D4D"/>
<path fill-rule="evenodd" clip-rule="evenodd" d="M130.207 136.274L106.379 92.1866C91.2 91.1854 66.2261 101.077 71.5826 130.207C72.4741 135.05 78.866 148.82 83.1763 154.009L90.0002 153.652C90.1705 153.643 124.274 151.43 124.443 151.414C128.325 147.781 130.612 142.502 130.24 136.781L130.207 136.274Z" fill="#BBBBBB" style="mix-blend-mode:multiply"/>
<path fill-rule="evenodd" clip-rule="evenodd" d="M332.659 251.872C332.659 251.872 262.874 254.177 211.142 239.183C159.411 224.188 103.98 187.956 80.0888 135.254C69.1574 111.141 87.1796 95.1667 100.265 92.7863C113.351 90.4065 128.161 93.4828 160.412 123.047C188.055 148.387 219.677 168.342 253.761 178.667C287.846 188.991 365.647 182.982 365.647 182.982L379.893 222.247L332.659 251.872Z" fill="white"/>
<path fill-rule="evenodd" clip-rule="evenodd" d="M109.448 117.812C119.051 130.479 103.468 120.674 88.4591 98.1985C90.3032 96.8163 92.2325 95.6759 94.1755 94.7856C97.3994 100.258 102.973 109.271 109.448 117.812ZM94.8722 130.224C103.303 142.43 90.6825 134.113 77.5801 114.156C78.2652 111.434 79.3372 108.938 80.7068 106.683C83.6967 112.307 88.8342 121.482 94.8722 130.224Z" fill="#BABABA"/>
</g>
<path fill-rule="evenodd" clip-rule="evenodd" d="M116.389 0.0169536L52.6797 3.35599C45.9645 3.70753 40.8065 9.43717 41.1581 16.1518L41.4562 21.8413L129.483 17.2281L129.185 11.5386C128.833 4.82335 123.104 -0.334587 116.389 0.0169536Z" fill="black"/>
</svg>
