<svg width="345" height="345" viewBox="0 0 345 345" fill="none" xmlns="http://www.w3.org/2000/svg">
<path d="M345 172.5C345 267.769 267.769 345 172.5 345C77.2309 345 0 267.769 0 172.5C0 77.2309 77.2309 0 172.5 0C267.769 0 345 77.2309 345 172.5Z" fill="#E8E8E8"/>
<path fill-rule="evenodd" clip-rule="evenodd" d="M66 278.25H185.167V67H66V278.25Z" fill="#CC0000"/>
<path fill-rule="evenodd" clip-rule="evenodd" d="M125.582 139.042C132.591 139.042 138.278 133.355 138.278 126.346C138.278 119.326 132.591 113.638 125.582 113.638C118.573 113.638 112.885 119.326 112.885 126.346C112.885 133.355 118.573 139.042 125.582 139.042ZM125.582 151.772C139.492 151.772 150.769 140.494 150.769 126.584C150.769 112.674 139.492 101.397 125.582 101.397C111.672 101.397 100.394 112.674 100.394 126.584C100.394 140.494 111.672 151.772 125.582 151.772ZM163.498 126.584C163.498 147.525 146.523 164.501 125.582 164.501C104.641 164.501 87.665 147.525 87.665 126.584C87.665 105.643 104.641 88.6675 125.582 88.6675C146.523 88.6675 163.498 105.643 163.498 126.584Z" fill="white"/>
<path fill-rule="evenodd" clip-rule="evenodd" d="M112.04 278.249H279.957V186.166H112.04V278.249Z" fill="#720000"/>
<path fill-rule="evenodd" clip-rule="evenodd" d="M247.457 224.083V278.249H220.373V224.083H247.457ZM209.54 224.083V278.249H182.457V224.083H209.54ZM171.623 224.083V278.249H144.54V224.083H171.623Z" fill="#D6D6D6"/>
</svg>
