<svg width="300" height="300" viewBox="0 0 300 300" fill="none" xmlns="http://www.w3.org/2000/svg">
<g clip-path="url(#clip0_0_24461)">
<path d="M0 150C0 67.1573 67.1573 0 150 0C232.843 0 300 67.1573 300 150C300 232.843 232.843 300 150 300C67.1573 300 0 232.843 0 150Z" fill="#E8E8E8"/>
<path fill-rule="evenodd" clip-rule="evenodd" d="M570.685 504.367C570.685 504.367 436.144 489.714 341.089 446.936C246.035 404.159 149.832 319.786 118.757 212.558C104.539 163.499 143.593 137.897 169.367 136.922C195.141 135.947 222.696 145.87 276.292 211.17C322.23 267.138 377.312 313.905 439.817 342.94C502.322 371.976 653.279 381.739 653.279 381.739L669.612 460.659L570.685 504.367Z" fill="white"/>
<path fill-rule="evenodd" clip-rule="evenodd" d="M98.0204 -1H202.92C213.977 -1 222.941 7.963 222.941 19.02V28.388H78.0004V19.02C78.0004 7.963 86.9634 -1 98.0204 -1ZM98.021 249C86.963 249 78 240.037 78 228.98V204.599H222.941V228.98C222.941 240.037 213.978 249 202.92 249H98.021Z" fill="#1A1A1A"/>
<path fill-rule="evenodd" clip-rule="evenodd" d="M78 205.211H222.941V29H78V205.211Z" fill="white"/>
<path fill-rule="evenodd" clip-rule="evenodd" d="M164.2 227.1C164.2 234.887 157.887 241.2 150.1 241.2C142.313 241.2 136 234.887 136 227.1C136 219.313 142.313 213 150.1 213C157.887 213 164.2 219.313 164.2 227.1Z" fill="#4D4D4D"/>
<path fill-rule="evenodd" clip-rule="evenodd" d="M149.758 92.7554C155.448 92.7554 160.06 88.1494 160.06 82.4674C160.06 76.7834 155.448 72.1784 149.758 72.1784C144.067 72.1784 139.453 76.7834 139.453 82.4674C139.453 88.1504 144.067 92.7554 149.758 92.7554ZM149.757 103.065C161.04 103.065 170.185 93.9304 170.185 82.6654C170.185 71.3974 161.04 62.2634 149.757 62.2634C138.474 62.2634 129.329 71.3974 129.329 82.6654C129.329 93.9304 138.475 103.065 149.757 103.065ZM119 82.6654C119 65.6994 132.768 51.9494 149.757 51.9494C166.746 51.9494 180.515 65.6994 180.515 82.6654C180.515 99.6244 166.746 113.377 149.757 113.377C132.768 113.377 119 99.6244 119 82.6654Z" fill="#CC0000"/>
<path fill-rule="evenodd" clip-rule="evenodd" d="M101.427 189.431H93V136.939H101.427V189.431ZM114.909 189.431H109.853V136.939H114.909V189.431ZM138.504 189.431H143.56V136.939H138.504V189.431ZM180.638 189.431H172.211V136.939H180.638V189.431ZM189.065 189.431H194.121V136.939H189.065V189.431ZM207.604 189.431H202.548V136.939H207.604V189.431ZM151.987 189.431H163.784V136.939H151.987V189.431ZM130.077 189.431H123.336V136.939H130.077V189.431Z" fill="black"/>
</g>
<defs>
<clipPath id="clip0_0_24461">
<path d="M0 150C0 67.1573 67.1573 0 150 0C232.843 0 300 67.1573 300 150C300 232.843 232.843 300 150 300C67.1573 300 0 232.843 0 150Z" fill="white"/>
</clipPath>
</defs>
</svg>
