<?xml version="1.0" encoding="UTF-8"?>
<svg width="200px" height="200px" viewBox="0 0 200 200" version="1.1" xmlns="http://www.w3.org/2000/svg" xmlns:xlink="http://www.w3.org/1999/xlink">
    <!-- Generator: Sketch 63.1 (92452) - https://sketch.com -->
    <title>Dynamic banner_1% Earnings_Large Icon_on Gray</title>
    <desc>Created with Sketch.</desc>
    <defs>
        <path d="M99.7903564,0 C44.6774731,0 0,44.6774731 0,99.7903564 C0,154.90324 44.6774731,199.580713 99.7903564,199.580713 C154.90324,199.580713 199.580713,154.90324 199.580713,99.7903564 C199.580713,44.6774731 154.90324,0 99.7903564,0" id="path-1"></path>
        <path d="M54.1448701,-1.51264667e-13 C54.1448701,-1.51264667e-13 115.631971,23.2482893 153.520329,56.4328702 C174.228655,74.5713896 234.817535,142.035645 232.79471,192.531607 C231.803938,217.247999 208.30707,225.022031 193.560686,223.30193 C181.200011,221.860423 165.197851,214.816454 150.893586,176.512794 C138.634119,143.682606 120.767603,113.64301 96.7520449,90.5735798 C72.7364865,67.5034841 -3.78160587e-14,46.5843456 -3.78160587e-14,46.5843456 L2.53885228,7.63772627 L54.1448701,-1.51264667e-13 Z" id="path-3"></path>
    </defs>
    <g id="Page-1" stroke="none" stroke-width="1" fill="none" fill-rule="evenodd">
        <g id="Dynamic-banner_1%-Earnings_Large-Icon_on-Gray" transform="translate(-5.000000, -5.000000)">
            <g transform="translate(5.000000, 5.000000)" id="Group">
                <g>
                    <mask id="mask-2" fill="white">
                        <use xlink:href="#path-1"></use>
                    </mask>
                    <use id="Base" fill="#CC0000" xlink:href="#path-1"></use>
                    <g id="Group-54" mask="url(#mask-2)">
                        <g transform="translate(-109.769392, -151.681342)">
                            <g id="Bag" transform="translate(123.740042, 181.618449)">
                                <path d="M95.1286999,6.65269043 L111.977269,51.0836904 L121.060198,48.5646401 L164.986723,208.087919 L44.5911297,241.492662 L0.665269043,81.9693836 L43.211269,70.1636904 L39.2508735,14.5012728 L56.2240731,13.3053809 L59.939269,65.5226904 L95.490269,55.6576904 L79.1670161,12.6114079 L95.1286999,6.65269043 Z" id="Back" fill="#A56042" fill-rule="nonzero"></path>
                                <g id="Front" transform="translate(23.949686, 0.000000)">
                                    <path d="M77.5251043,0.665269043 L101.741,47.686269 L136.976974,37.9203354 L180.95318,197.539794 L43.9762057,235.505241 L1.84649252e-17,75.886449 L31.857,67.056269 L23.9496855,20.8176084 L40.5819384,17.9622642 L48.202,62.526269 L85.147,52.286269 L62.53529,8.37846437 L77.5251043,0.665269043 Z" id="Bag" fill="#DCA176" fill-rule="nonzero"></path>
                                    <path d="M96.9301519,114.641795 C92.6416909,109.608964 85.0817177,109.006348 80.0496085,113.294848 C75.0148,117.584698 74.4121885,125.142715 78.7006496,130.175546 C82.9911351,135.209725 90.5477342,135.813692 95.5825427,131.523167 C100.614652,127.235342 101.219963,119.675974 96.9301519,114.641795 M104.366759,107.738626 C96.2651136,98.2311397 81.9879484,97.0920153 72.4810906,105.192309 C62.9715852,113.295912 61.8324567,127.572365 69.9334407,137.079189 C78.0357485,146.587337 92.3115898,147.728447 101.821757,139.624844 C111.327953,131.524551 112.468405,117.246774 104.366759,107.738626 M109.705091,148.82038 C95.3013882,161.093192 73.6781887,159.363239 61.4059759,144.961612 C49.133763,130.559319 50.8590644,108.938235 65.2621009,96.6647566 C79.6631398,84.3932762 101.288337,86.1185681 113.559884,100.520195 C125.832097,114.922487 124.10613,136.548899 109.705091,148.82038" id="Bullseye" fill="#CC0000"></path>
                                </g>
                            </g>
                            <g id="Paw">
                                <mask id="mask-4" fill="white">
                                    <use xlink:href="#path-3"></use>
                                </mask>
                                <use id="Arm" fill="#FFFFFF" xlink:href="#path-3"></use>
                                <path d="M193.029154,202.685523 C194.9527,183.83818 200.653463,205.041606 195.448535,236.835779 C192.688519,236.545339 190.050782,235.974429 187.60587,235.174225 C189.252608,227.782302 191.733129,215.393089 193.029154,202.685523 Z M211.161493,202.856062 C210.928632,185.206674 217.821068,201.792374 217.534266,230.196755 C215.074092,232.431628 212.383029,234.187409 209.559748,235.505241 C210.32806,227.967191 211.327917,215.496231 211.161493,202.856062 Z" id="Combined-Shape" fill="#BBBBBB" mask="url(#mask-4)"></path>
                            </g>
                        </g>
                    </g>
                </g>
            </g>
        </g>
    </g>
</svg>